<svg xmlns="http://www.w3.org/2000/svg" viewBox="0 0 500 120" width="100%" height="100%">
  <style>
    .logo-path {
      fill: none;
      stroke: #ffffff;
      stroke-width: 4.5;
      stroke-linecap: round;
      stroke-linejoin: round;
    }
  </style>
  <!-- C -->
  <path class="logo-path" d="M 90,35 H 55 A 20,20 0 0,0 35,55 V 65 A 20,20 0 0,0 55,85 H 90" />
  <!-- A -->
  <path class="logo-path" d="M 110,85 L 137.5,35 L 165,85" />
  <!-- M -->
  <path class="logo-path" d="M 185,85 V 35 L 215,65 L 245,35 V 85" />
  <!-- P -->
  <path class="logo-path" d="M 265,85 V 35 H 295 A 16,16 0 0,1 311,51 V 53 A 16,16 0 0,1 295,69 H 265" />
  <!-- O -->
  <path class="logo-path" d="M 350,35 H 365 A 20,20 0 0,1 385,55 V 65 A 20,20 0 0,1 365,85 H 350 A 20,20 0 0,1 330,65 V 55 A 20,20 0 0,1 350,35 Z" />
  <!-- S -->
  <path class="logo-path" d="M 460,35 H 425 A 15,15 0 0,0 410,50 V 50 A 10,10 0 0,0 420,60 H 445 A 15,15 0 0,1 460,70 V 70 A 15,15 0 0,1 445,85 H 405" />
</svg>
